<svg width="24" height="24" viewBox="0 0 24 24" fill="none" xmlns="http://www.w3.org/2000/svg">
<path d="M19.4677 16.8136C21.1764 15.1049 22.0883 12.8184 22.0354 10.3752C21.9833 7.96697 21.0059 5.69199 19.2832 3.96924L18.2225 5.02988C19.6609 6.4553 20.4901 8.38312 20.5358 10.4076C20.5797 12.4379 19.8237 14.3362 18.4047 15.7553L16.1258 18.0545L16.1279 13.8749L14.6279 13.8742L14.6245 20.6245H21.3778V19.1245H17.1772L19.4677 16.8136Z" fill="#394A58"/>
<path d="M2.24719 5.25H6.44785L4.15734 7.56094C2.44861 9.26958 1.53675 11.5561 1.58958 13.9993C1.64293 16.4104 2.62957 18.7069 4.34184 20.4053L5.40249 19.3446C3.96418 17.9192 3.13491 15.9914 3.0892 13.967C3.04528 11.9366 3.80128 10.0383 5.22028 8.61933L7.49921 6.32006L7.49714 10.4997L8.99715 10.5004L9.00052 3.75H2.24719V5.25Z" fill="#394A58"/>
</svg>
