<svg width="33" height="33" viewBox="0 0 33 33" fill="none" xmlns="http://www.w3.org/2000/svg">
<path d="M27.7585 15.0346C28.4687 15.8968 28.4687 17.1032 27.7585 17.9654C25.8059 20.3361 21.4991 24.75 16.5 24.75C11.5009 24.75 7.19408 20.3361 5.24145 17.9654C4.53133 17.1032 4.53133 15.8968 5.24145 15.0346C7.19408 12.6639 11.5009 8.25 16.5 8.25C21.4991 8.25 25.8059 12.6639 27.7585 15.0346Z" stroke="#7F7F7F" stroke-width="2"/>
<path d="M20.625 16.5C20.625 18.7782 18.7782 20.625 16.5 20.625C14.2218 20.625 12.375 18.7782 12.375 16.5C12.375 14.2218 14.2218 12.375 16.5 12.375C18.7782 12.375 20.625 14.2218 20.625 16.5Z" stroke="#7F7F7F" stroke-width="2"/>
</svg>
