<svg width="33" height="33" viewBox="0 0 33 33" fill="none" xmlns="http://www.w3.org/2000/svg">
<path d="M21.5641 0H11.4341C2.19 0 -0.00140381 2.19141 -0.00140381 11.4355V21.5655C-0.00140381 30.8096 2.19 33.001 11.4341 33.001H21.5641C30.8082 33.001 32.9996 30.8096 32.9996 21.5655V11.4355C32.9996 2.19141 30.7866 0 21.5641 0V0ZM26.6399 23.5414H24.2443C23.3368 23.5414 23.0573 22.8216 21.4249 21.1674C20.0069 19.7928 19.3789 19.6103 19.0293 19.6103C18.5353 19.6103 18.3951 19.7495 18.3951 20.427V22.5916C18.3951 23.1722 18.2125 23.5208 16.676 23.5208C14.135 23.5208 11.3155 21.9842 9.33863 19.1214C6.35728 14.9263 5.54156 11.7841 5.54156 11.1344C5.54156 10.7848 5.68078 10.4579 6.35213 10.4579H8.75288C9.36028 10.4579 9.59128 10.7374 9.82744 11.3871C11.0144 14.8139 12.9913 17.8159 13.807 17.8159C14.1082 17.8159 14.2474 17.6767 14.2474 16.9084V13.3691C14.1556 11.7367 13.2966 11.5964 13.2966 11.0168C13.2966 10.7374 13.5276 10.4579 13.8978 10.4579H17.6732C18.1837 10.4579 18.3713 10.7374 18.3713 11.3386V16.1133C18.3713 16.6289 18.6023 16.8114 18.7416 16.8114C19.0427 16.8114 19.3005 16.6289 19.8584 16.07C21.5827 14.1364 22.8181 11.155 22.8181 11.155C22.979 10.8054 23.2584 10.4785 23.8658 10.4785H26.2666C26.9864 10.4785 27.1473 10.8488 26.9864 11.3644C26.6853 12.7607 23.7473 16.9073 23.7473 16.9073C23.4946 17.326 23.3977 17.5086 23.7473 17.9757C24.0051 18.3253 24.8435 19.0503 25.4014 19.7C26.4275 20.8653 27.2164 21.8429 27.4268 22.5194C27.6629 23.1907 27.3143 23.5403 26.6368 23.5403L26.6399 23.5414Z" fill="#7F7F7F"/>
</svg>
