<svg width="22" height="22" viewBox="0 0 22 22" fill="none" xmlns="http://www.w3.org/2000/svg">
<path d="M18.5057 10.0231C18.9791 10.5979 18.9791 11.4021 18.5057 11.9769C17.204 13.5574 14.3328 16.5 11 16.5C7.66728 16.5 4.79609 13.5574 3.49434 11.9769C3.02093 11.4021 3.02093 10.5979 3.49434 10.0231C4.79609 8.44263 7.66728 5.5 11 5.5C14.3328 5.5 17.204 8.44263 18.5057 10.0231Z" stroke="white" stroke-width="2"/>
<path d="M13.75 11C13.75 12.5188 12.5188 13.75 11 13.75C9.48122 13.75 8.25 12.5188 8.25 11C8.25 9.48122 9.48122 8.25 11 8.25C12.5188 8.25 13.75 9.48122 13.75 11Z" stroke="white" stroke-width="2"/>
</svg>
