<svg width="104" height="98" viewBox="0 0 104 98" fill="none" xmlns="http://www.w3.org/2000/svg">
<path d="M82.9375 25.5625V5.10938C82.9362 3.97017 82.4831 2.87801 81.6775 2.07247C80.872 1.26693 79.7798 0.813808 78.6406 0.8125H25.3594C24.2202 0.813808 23.128 1.26693 22.3225 2.07247C21.5169 2.87801 21.0638 3.97017 21.0625 5.10938V25.5625L0.4375 40.2935V97.0625H103.562V40.2935L82.9375 25.5625ZM94.4701 42.2488L82.9375 49.7883V34.0102L94.4701 42.2488ZM27.9375 7.6875H76.0625V54.2835L63.7807 62.3139L53.7738 57.125L42.8674 62.3902L27.9375 53.3257V7.6875ZM53.6637 64.8123L96.6875 87.121V90.1875H7.3125V87.1889L53.6637 64.8123ZM7.3125 48.8462L35.488 65.9531L7.3125 79.5547V48.8462ZM70.7872 65.9478L96.6875 49.012V79.3768L70.7872 65.9478ZM21.0625 34.0102V49.1523L9.60402 42.1946L21.0625 34.0102Z" fill="white"/>
</svg>
